<?xml version="1.0" standalone="no"?><!DOCTYPE svg PUBLIC "-//W3C//DTD SVG 1.1//EN" "http://www.w3.org/Graphics/SVG/1.1/DTD/svg11.dtd"><svg t="1705162798451" class="icon" viewBox="0 0 1024 1024" version="1.1" xmlns="http://www.w3.org/2000/svg" p-id="1600" xmlns:xlink="http://www.w3.org/1999/xlink" width="200" height="200"><path d="M928 512a42.666667 42.666667 0 0 0-23.466667-37.973333l-261.12-130.56v-170.666667a131.413333 131.413333 0 1 0-262.826666 0v170.666667L119.466667 474.026667a42.666667 42.666667 0 0 0-23.466667 37.973333v142.08a42.666667 42.666667 0 0 0 18.346667 35.413333 42.666667 42.666667 0 0 0 39.253333 4.693334l226.986667-85.333334V768l-77.653334 25.6a42.666667 42.666667 0 0 0-29.013333 40.533333V938.666667a42.666667 42.666667 0 0 0 12.8 30.293333 42.666667 42.666667 0 0 0 29.866667 12.373333h391.253333a42.666667 42.666667 0 0 0 42.666667-42.666666v-106.666667a42.666667 42.666667 0 0 0-29.013334-40.533333L643.413333 768v-158.72l226.986667 85.333333a42.666667 42.666667 0 0 0 39.253333-4.693333 42.666667 42.666667 0 0 0 18.346667-35.413333z m-311.893333-4.266667a42.666667 42.666667 0 0 0-39.68 4.693334 42.666667 42.666667 0 0 0-18.346667 34.986666v249.173334a42.666667 42.666667 0 0 0 29.44 40.533333l77.226667 25.6V896H358.826667v-33.28l77.226666-25.6a42.666667 42.666667 0 0 0 29.44-40.533333v-249.173334a42.666667 42.666667 0 0 0-18.346666-34.986666 42.666667 42.666667 0 0 0-39.68-4.693334l-226.56 85.333334v-54.613334l260.693333-130.56a42.666667 42.666667 0 0 0 23.893333-37.973333V174.08a46.08 46.08 0 1 1 92.16 0v195.84a42.666667 42.666667 0 0 0 23.893334 37.973333l260.693333 130.56v54.186667z" p-id="1601"></path></svg>